<svg xmlns="http://www.w3.org/2000/svg" viewBox="0 0 171.28 275.33"><defs><style>.cls-1{fill:#fff;}.cls-2{fill:#201600;}</style></defs><title>Безымянный-6</title><g id="Слой_2" data-name="Слой 2"><path class="cls-1" d="M180.3,73.58c.2,16.79,19.51,29.48,34.89,33.07a49.56,49.56,0,0,0,20.62.3l1.5-35.47-6.47-29.57L217.38,23.7,195.66,41.75l-9.9,16.06C180.83,64.77,180.27,70.53,180.3,73.58Z" transform="translate(-74.36 -19.8)"/><path class="cls-1" d="M138.9,73.57C138.7,90.35,119.39,103,104,106.63a49.43,49.43,0,0,1-20.63.3l-1.5-35.47,6.48-29.57,13.45-18.21,21.72,18,9.9,16.06C138.37,64.75,138.94,70.51,138.9,73.57Z" transform="translate(-74.36 -19.8)"/><path class="cls-1" d="M143,56.79l-11.31,4.26,0-.12c-.42.34-.85.67-1.29,1-1.2.84-2.54,1.52-3.65,2.47-2.33,2-4.32,4.3-6.76,6.19-2.23,1.73-4.57,3.32-6.92,4.87-9.6,6.34-19.78,11.92-27.77,20.27a1.36,1.36,0,0,1-1.83.2v.22l-5.8,18.7L80,143.36l12.31,15.87a43.87,43.87,0,0,0-3.55,19.63c1.06,18.18,14.78,42.91,36.69,42.7,17.68-.16,35-16.5,36.62-38.9V56.79Z" transform="translate(-74.36 -19.8)"/><path class="cls-1" d="M242.33,114.83,238.65,103a1.44,1.44,0,0,1-2.19-1.26c.29-5.18-5.07-8.81-9-11.22-4.47-2.73-9.29-4.82-14-7.14-5.7-2.81-10.34-6.91-14.92-11.23-2.82-2.67-5.71-5.21-8.78-7.61-2.17-1.71-4.35-3.43-6.39-5.3L177,56.79H158V182.66c4.47,16.51,18.77,28.18,34.85,28.83,20.09.82,36.31-15.82,38.46-32.63a34.89,34.89,0,0,0-3.55-19.63L240,143.36Z" transform="translate(-74.36 -19.8)"/><path class="cls-1" d="M96.61,181.2s-12.85,5.36-14.72,17.61-11.31,71.36,13.17,85.35,107.67,7.69,125.2,2.45,19.27-48.28,19.27-54.4,2.27-43.93-16-49-74.59-13.46-74.59-13.46Z" transform="translate(-74.36 -19.8)"/></g><g id="Слой_1" data-name="Слой 1"><path class="cls-2" d="M219.37,186.23c.54.16,1.07.33,1.6.52.21.08.42.18.63.25.53.17-.78-.38,0,0a23.25,23.25,0,0,1,2.72,1.51c.36.23.7.48,1,.73-.83-.62.41.37.61.55a19.35,19.35,0,0,1,1.88,2l.47.57c-.62-.77-.09-.1,0,.06.24.34.47.68.7,1a27.27,27.27,0,0,1,1.47,2.64c.19.39.36.78.54,1.17-.43-.95.21.56.31.81.35,1,.66,1.92.94,2.9a51.59,51.59,0,0,1,1.29,6c0,.29.23,1.63.11.69.07.56.14,1.12.2,1.68.12,1.08.21,2.17.29,3.25.29,4.19.31,8.38.25,12.58-.14,10.4.24,21.31-1.22,31.38a76.2,76.2,0,0,1-2,9.7c-.42,1.51-.91,3-1.44,4.47-.39,1.08.3-.59-.18.44l-.3.64c-.35.73-.74,1.44-1.16,2.13-.29.49-.61,1-.93,1.43,0,0-.7.94-.24.35l-.43.53a26.63,26.63,0,0,1-2.81,2.91,27.68,27.68,0,0,1-6.05,4l-.62.31c-.11,0-1.35.6-.73.34-.65.28-1.31.52-2,.76a51.3,51.3,0,0,1-5.45,1.55,62.14,62.14,0,0,1-10.58,1.38c-7.64.44-15.3,0-22.95.2a3.64,3.64,0,1,0,0,7.28c14-.32,28.86,1.39,42.24-3.89a34.32,34.32,0,0,0,14.07-9.66c4.21-5.09,6.27-11.19,7.62-17.58,2.5-11.86,2.14-24,2.37-36,.17-9,.21-18.08-1.86-26.84a34.76,34.76,0,0,0-6.2-13.59,24,24,0,0,0-12.31-8.16,3.64,3.64,0,1,0-1.93,7Z" transform="translate(-74.36 -19.8)"/><path class="cls-2" d="M118.7,293.48c11.25,2.25,22.66,1.36,34,1.64a3.78,3.78,0,0,0,3.75-3.75,3.83,3.83,0,0,0-3.75-3.75c-10.67-.26-21.65.71-32.05-1.37a3.83,3.83,0,0,0-4.61,2.62c-.42,1.86.56,4.2,2.62,4.61Z" transform="translate(-74.36 -19.8)"/><path class="cls-2" d="M94.58,178.18c-7.22,3.24-11.74,10-14.25,17.3-3,8.57-4,18-4.35,27-.31,9.27.34,18.53.88,27.77a80,80,0,0,0,1.31,11.86,47.93,47.93,0,0,0,3.48,10.37c3.4,7.35,9.2,13.73,16.68,17a3.75,3.75,0,0,0,5-1.3c.91-1.55.5-4.19-1.31-5a29.13,29.13,0,0,1-4.45-2.44c-.33-.22-.65-.46-1-.69-.53-.39.17.16-.34-.27-.69-.58-1.37-1.17-2-1.81s-1-1-1.5-1.59l-.76-.9c-.07-.08-.43-.54-.06-.06l-.4-.54a34.6,34.6,0,0,1-2.59-4.14c-.34-.65-.67-1.31-1-2-.09-.21-.18-.42-.28-.62l-.08-.19c.16.39-.11-.26-.14-.35s-.17-.42-.25-.63a45.77,45.77,0,0,1-1.49-4.7c-.41-1.58-.74-3.18-1-4.79,0-.17,0-.34-.07-.5,0,.15.08.69,0,0l-.12-1c-.1-1-.15-2-.2-3-.49-8.81-1.18-17.63-1.13-26.46a102.84,102.84,0,0,1,3.16-25.81,41.52,41.52,0,0,1,1.75-5.33c.16-.39,0,0,0,.06l.36-.8c.2-.42.41-.84.62-1.26.44-.82.91-1.62,1.42-2.4.25-.39.52-.77.79-1.14s0,0,0,0l.56-.66a20.25,20.25,0,0,1,1.94-2l.4-.35.46-.37c-.28.21.19-.14.2-.14l.74-.5a21.18,21.18,0,0,1,2.74-1.47c1.79-.8,2.22-3.41,1.3-5a3.73,3.73,0,0,0-5-1.3Z" transform="translate(-74.36 -19.8)"/><path class="cls-2" d="M94.71,154.61A17.94,17.94,0,0,1,87.28,147,29.18,29.18,0,0,1,85,141.87a55.34,55.34,0,0,1-1.81-6.18,60,60,0,0,1-.2-25.7,58.56,58.56,0,0,1,4.88-14,3.73,3.73,0,0,0-1.31-5,3.67,3.67,0,0,0-5,1.3,67.36,67.36,0,0,0-7.16,29.07c-.16,9.58,1.63,19.72,6.09,28.27A26.14,26.14,0,0,0,91,160.9a3.64,3.64,0,0,0,3.67-6.29Z" transform="translate(-74.36 -19.8)"/><path class="cls-2" d="M229,160.9c8.46-4.47,12.68-14,14.82-22.87a67.37,67.37,0,0,0,.34-29.77,65.87,65.87,0,0,0-5.65-15.93A3.64,3.64,0,0,0,232.2,96a59.36,59.36,0,0,1,6.16,25,65.31,65.31,0,0,1-.21,6.85,47.93,47.93,0,0,1-.88,6,58,58,0,0,1-1.72,6.59c-.28.89-.6,1.77-.94,2.64l-.17.43c.14-.34-.16.37-.19.43q-.34.78-.72,1.53a30.2,30.2,0,0,1-1.66,2.93c-.33.52-.68,1-1.05,1.52.29-.38-.46.56-.58.7a21.72,21.72,0,0,1-2.47,2.42c-.47.39.36-.25-.13.1-.24.18-.49.36-.75.53-.51.33-1,.64-1.58.92A3.64,3.64,0,1,0,229,160.9Z" transform="translate(-74.36 -19.8)"/><path class="cls-2" d="M141.49,160.34a48.82,48.82,0,0,0,38.81-.89,2.45,2.45,0,0,0,.87-3.33,2.49,2.49,0,0,0-3.32-.87,44.09,44.09,0,0,1-35.07.41,2.44,2.44,0,0,0-3,1.7,2.48,2.48,0,0,0,1.69,3Z" transform="translate(-74.36 -19.8)"/><path class="cls-2" d="M87.79,81.14a43.25,43.25,0,0,1-.62-4.81c-.15-1.8-.23-3.61-.23-5.42s.06-3.62.2-5.43.3-3.16.54-4.62A69.71,69.71,0,0,1,90.23,50.3,58.67,58.67,0,0,1,94.11,41a66.85,66.85,0,0,1,5.71-9.23c.57-.78.63-.84,1.21-1.57s1.24-1.5,1.88-2.22l.73-.77c.49-.51.21-.21.09-.1.11-.11.45-.12.18-.11s-.6,0-.1.15c0,0,.57.21.32.11l.66.35A45.74,45.74,0,0,1,109,30.18a34.33,34.33,0,0,1,3.62,2.8,53.65,53.65,0,0,1,6.92,7.22,48,48,0,0,1,9.18,19.93,3.66,3.66,0,0,0,4.47,2.54,3.71,3.71,0,0,0,2.55-4.48,56,56,0,0,0-26.17-36.27c-2.1-1.23-4.35-2.4-6.85-2.06s-4.09,1.89-5.61,3.66a71.14,71.14,0,0,0-7.24,10,72.65,72.65,0,0,0-9.12,49.53c.33,1.94,2.71,3,4.47,2.54a3.73,3.73,0,0,0,2.55-4.48Z" transform="translate(-74.36 -19.8)"/><path class="cls-2" d="M118.54,73.67a32.42,32.42,0,0,1,3-3.26c.5-.47,1-.92,1.55-1.36.13-.11.78-.63.34-.29.31-.24.64-.48,1-.71a44.16,44.16,0,0,1,7.88-4.42c.38-.17,0,0-.06,0l.48-.19q.49-.21,1-.39c.72-.27,1.44-.53,2.17-.77,1.46-.49,2.94-.91,4.43-1.28s3-.69,4.52-1l2.1-.34.43-.06,1.23-.14a78.59,78.59,0,0,1,10.06-.43,3.67,3.67,0,0,0,3.64-3.64,3.72,3.72,0,0,0-3.64-3.64c-12.67-.27-26.38,2.16-37,9.36a38.41,38.41,0,0,0-8.23,7.35,3.74,3.74,0,0,0,0,5.15c1.29,1.28,3.89,1.52,5.15,0Z" transform="translate(-74.36 -19.8)"/><path class="cls-2" d="M204,68.52c-8.48-10.31-22-14.78-34.87-16.24a77,77,0,0,0-10.41-.47,3.64,3.64,0,1,0,0,7.28,78.41,78.41,0,0,1,8.67.29c.76.07,1.51.15,2.26.24.2,0,1,.14.44.05l1.22.18c1.52.24,3,.53,4.53.88a57.89,57.89,0,0,1,8.64,2.66c.15.06.95.4.43.17l1,.43c.75.34,1.48.7,2.2,1.08a42.56,42.56,0,0,1,3.74,2.2c.71.47,1.42,1,2.1,1.49-.46-.35.34.29.47.4l.91.78a33.91,33.91,0,0,1,3.56,3.73c1.25,1.52,3.85,1.29,5.15,0a3.73,3.73,0,0,0,0-5.15Z" transform="translate(-74.36 -19.8)"/><path class="cls-2" d="M238.09,83.17a73.11,73.11,0,0,0-7.69-47A72.2,72.2,0,0,0,223.7,26a27.32,27.32,0,0,0-3.87-4.37,7.23,7.23,0,0,0-7.48-1.18,40.29,40.29,0,0,0-10.3,6.63,52.09,52.09,0,0,0-7.73,7.84A56,56,0,0,0,183.1,58.29a3.64,3.64,0,1,0,7,1.94A46.77,46.77,0,0,1,198,42.15a34.43,34.43,0,0,1,2.81-3.62q1.68-2,3.55-3.73c.57-.55,1.16-1.08,1.76-1.61l1-.83.42-.35.5-.39c.24-.19,1.18-.88,1.71-1.24.7-.49,1.42-1,2.15-1.41s1.47-.89,2.22-1.3c.11-.06.88-.45.6-.34.29-.11,1.12-.29.39-.22-.18,0-.46-.45.08.06,0-.05-.36-.31,0,0a10.41,10.41,0,0,1,.86.9c.61.67,1.19,1.37,1.76,2.07s.67.81,1.22,1.56,1.14,1.57,1.68,2.37c1,1.5,2,3.05,2.86,4.62a65,65,0,0,1,7.24,19.62c.19.95.36,1.91.51,2.87.18,1.16.19,1.17.33,2.49q.32,3,.37,6c0,2,0,4-.16,6q-.12,1.55-.3,3.09s-.08.62,0,.28-.06.41-.07.48c-.09.58-.18,1.15-.28,1.73-.32,1.87.5,4,2.54,4.47,1.77.41,4.13-.53,4.48-2.54Z" transform="translate(-74.36 -19.8)"/><path class="cls-2" d="M150.52,99.21c-11-8.82-27.87-6.69-38.75,1.18a36.59,36.59,0,0,0-8.07,8,2.44,2.44,0,0,0,.87,3.32,2.48,2.48,0,0,0,3.32-.87,31.42,31.42,0,0,1,17.58-11.55c7-1.77,15.77-1.38,21.62,3.32a2.5,2.5,0,0,0,3.43,0,2.44,2.44,0,0,0,0-3.43Z" transform="translate(-74.36 -19.8)"/><path class="cls-2" d="M109.87,97.77c-.34-.18-.66-.37-1-.57l-.48-.34c-.28-.2.31.25.12.09l-.21-.17a11.46,11.46,0,0,1-1.58-1.61c-.21-.26.24.33.1.12l-.16-.21q-.17-.22-.3-.45a8.57,8.57,0,0,1-.56-1c-.09-.17-.17-.35-.26-.53s.16.38.07.15l-.1-.25a11.34,11.34,0,0,1-.35-1.13,2.06,2.06,0,0,0-4,1.09,13.22,13.22,0,0,0,6.58,8.35,2.06,2.06,0,1,0,2.09-3.56Z" transform="translate(-74.36 -19.8)"/><path class="cls-2" d="M115.86,93.38l-.52-.2.49.21a10.25,10.25,0,0,1-2.19-1.29l.41.32a10.23,10.23,0,0,1-1.74-1.74l.32.42a10.75,10.75,0,0,1-.67-1,2.15,2.15,0,0,0-1.24-1,2.06,2.06,0,0,0-2.33,3,12.17,12.17,0,0,0,6.37,5.17,2.06,2.06,0,0,0,2.33-3,2.29,2.29,0,0,0-1.23-1Z" transform="translate(-74.36 -19.8)"/><path class="cls-2" d="M129.77,145.89a25.42,25.42,0,0,0,34.5-13.58,2.45,2.45,0,0,0-1.7-3,2.49,2.49,0,0,0-3,1.7,20.82,20.82,0,0,1-27.37,10.68,2.5,2.5,0,0,0-3.32.87,2.44,2.44,0,0,0,.87,3.32Z" transform="translate(-74.36 -19.8)"/><path class="cls-2" d="M192.2,141.7A20.82,20.82,0,0,1,164.83,131a2.5,2.5,0,0,0-3-1.7,2.45,2.45,0,0,0-1.7,3,25.42,25.42,0,0,0,34.5,13.58,2.44,2.44,0,0,0,.87-3.32,2.48,2.48,0,0,0-3.32-.87Z" transform="translate(-74.36 -19.8)"/><path class="cls-2" d="M176.51,103c5.85-4.71,14.61-5.1,21.62-3.33a31.46,31.46,0,0,1,17.58,11.56,2.51,2.51,0,0,0,3.32.87,2.45,2.45,0,0,0,.87-3.32,36.49,36.49,0,0,0-35.28-14.35,25.25,25.25,0,0,0-11.54,5.13,2.45,2.45,0,0,0,0,3.44,2.49,2.49,0,0,0,3.43,0Z" transform="translate(-74.36 -19.8)"/><path class="cls-2" d="M215.82,101.66a13.2,13.2,0,0,0,6.58-8.34,2.06,2.06,0,1,0-4-1.1,9.65,9.65,0,0,1-.33,1.08c0,.09-.07.17-.1.25-.14.39.22-.46,0-.09l-.23.48a10.38,10.38,0,0,1-.56,1q-.13.22-.3.45l-.15.22c-.24.33.32-.39.06-.08a12.1,12.1,0,0,1-1.54,1.58l-.21.17c-.31.26.41-.3.08-.06l-.44.3a10.47,10.47,0,0,1-1,.6,2.08,2.08,0,0,0-.74,2.82,2.11,2.11,0,0,0,2.83.74Z" transform="translate(-74.36 -19.8)"/><path class="cls-2" d="M208.84,97.7a12.16,12.16,0,0,0,6.36-5.17,2.09,2.09,0,0,0-.74-2.83,2.12,2.12,0,0,0-2.82.74,8.59,8.59,0,0,1-.67,1l.32-.41a10.23,10.23,0,0,1-1.74,1.74l.41-.32a9.81,9.81,0,0,1-2.19,1.28l.49-.2-.52.2a2.16,2.16,0,0,0-1.23,1,2.1,2.1,0,0,0-.21,1.59,2.07,2.07,0,0,0,2.54,1.44Z" transform="translate(-74.36 -19.8)"/><path class="cls-2" d="M110.67,202.92c-6.7-4.66-7.44-14.28-7.87-21.68-.26-4.47-.6-9.1.67-13.46,1.22-4.19,3.82-8.09,7.88-9.95,4.23-2,8.72-.31,11.84,2.85a20.58,20.58,0,0,1,4.44,7.22,95,95,0,0,1,4,15.68c.79,4.26,1.25,8.92-.43,13a14.18,14.18,0,0,1-9.75,8.47,13,13,0,0,1-4.32.32c-.55,0,.6.13-.08,0l-.74-.14a16.13,16.13,0,0,1-1.66-.42,15.27,15.27,0,0,1-4-1.92c-2.62-1.72-5,2.48-2.45,4.19a18.36,18.36,0,0,0,12.18,3.07A19,19,0,0,0,134,201.65a21.73,21.73,0,0,0,3.09-13.89,91.39,91.39,0,0,0-3.77-18,31.18,31.18,0,0,0-4.62-10c-3.42-4.61-8.77-8.2-14.74-7.56-5.61.59-10.48,4.43-13.13,9.32-2.57,4.73-3.24,10-3.1,15.27.27,10.58.94,23.69,10.48,30.34a2.45,2.45,0,0,0,3.32-.87A2.47,2.47,0,0,0,110.67,202.92Z" transform="translate(-74.36 -19.8)"/><path class="cls-2" d="M116.73,204.64q-.7-1.17-1.29-2.4c-.11-.21-.21-.43-.31-.66s-.29-.64,0-.08c-.19-.42-.35-.85-.5-1.27a29.13,29.13,0,0,1-1.35-5.19,2.43,2.43,0,0,0-3-1.69,2.5,2.5,0,0,0-1.7,3,30.75,30.75,0,0,0,4,10.76,2.43,2.43,0,1,0,4.19-2.45Z" transform="translate(-74.36 -19.8)"/><path class="cls-2" d="M128.43,203.49c-.35-.36-.68-.74-1-1.13l.38.49a13.8,13.8,0,0,1-1.77-3l.25.58a13.65,13.65,0,0,1-.92-3.38l.09.64,0-.12a2.63,2.63,0,0,0-.71-1.72,2.43,2.43,0,0,0-3.43,0,2.31,2.31,0,0,0-.71,1.72,17,17,0,0,0,1.52,5.31,15.73,15.73,0,0,0,2.87,4.09,2.43,2.43,0,1,0,3.44-3.44Z" transform="translate(-74.36 -19.8)"/><path class="cls-2" d="M162.75,128.93a44.2,44.2,0,0,1-6.87-3l-.31-.19s.23.19,0,0-.22-.33-.12,0,0-.1,0-.13.07.17,0,.27c-.08.29-.23.34,0,.15-.27.19.16-.09.06,0a4,4,0,0,1,.86-.22c.34-.06,1.18-.1,1.71-.14a60.72,60.72,0,0,1,8.53.08l1,.09.26,0,.19,0c.12,0,.26.08.38.1.31,0,0,0,0,0s-.42-.52-.24-.31c-.45-.54,0,.13-.11-.11s0-.16,0-.26-.13.36,0,.16l-.11.12a3.88,3.88,0,0,1-1.1.68c-1.36.67-2.78,1.26-4.17,1.89a6.65,6.65,0,0,0-2.22,1.21,3.09,3.09,0,0,0-.68,3.12,2.49,2.49,0,0,0,3,1.7,2.45,2.45,0,0,0,1.7-3v.63l-.63,1.07c-.14.18.22-.06.26-.08a6.46,6.46,0,0,0,.6-.27l1.21-.54,2.41-1.09A8.22,8.22,0,0,0,172.2,128a4.61,4.61,0,0,0-.24-5.39c-1.21-1.43-3.05-1.58-4.79-1.74a56.66,56.66,0,0,0-10.5,0c-1.84.18-3.68.6-4.92,2.08a4.38,4.38,0,0,0-.37,5.32c1.07,1.57,2.86,2.3,4.52,3.05q2.74,1.24,5.56,2.31a2.43,2.43,0,1,0,1.29-4.68Z" transform="translate(-74.36 -19.8)"/><path class="cls-2" d="M185.54,129.81a27.84,27.84,0,0,1,28.91,10.05,1.88,1.88,0,0,0,2.49.66,1.82,1.82,0,0,0,.65-2.49,31.61,31.61,0,0,0-33-11.74c-2.26.6-1.3,4.12,1,3.52Z" transform="translate(-74.36 -19.8)"/><path class="cls-2" d="M185.1,132.67a20.63,20.63,0,0,1,16.63,15.8c.49,2.29,4,1.33,3.51-1a24.17,24.17,0,0,0-19.17-18.35,1.87,1.87,0,0,0-2.24,1.27,1.84,1.84,0,0,0,1.27,2.24Z" transform="translate(-74.36 -19.8)"/><path class="cls-2" d="M184.57,127.59a20.56,20.56,0,0,1,22.06-4.52,1.88,1.88,0,0,0,2.49-.65,1.82,1.82,0,0,0-.65-2.49A24.29,24.29,0,0,0,182,125c-1.65,1.66.93,4.24,2.58,2.57Z" transform="translate(-74.36 -19.8)"/><path class="cls-2" d="M139.08,125.43a31.58,31.58,0,0,0-33,11.73,1.83,1.83,0,0,0,.65,2.49,1.86,1.86,0,0,0,2.49-.66,27.84,27.84,0,0,1,28.91-10.05c2.27.6,3.24-2.91,1-3.51Z" transform="translate(-74.36 -19.8)"/><path class="cls-2" d="M137.58,128.29a24.17,24.17,0,0,0-19.17,18.35c-.49,2.28,3,3.26,3.51,1a20.65,20.65,0,0,1,16.63-15.81,1.83,1.83,0,0,0,1.27-2.24,1.86,1.86,0,0,0-2.24-1.27Z" transform="translate(-74.36 -19.8)"/><path class="cls-2" d="M141.66,124.15a24.29,24.29,0,0,0-26.48-5.09,1.83,1.83,0,0,0-.65,2.49,1.87,1.87,0,0,0,2.49.65,20.58,20.58,0,0,1,22.07,4.52c1.65,1.67,4.22-.91,2.57-2.57Z" transform="translate(-74.36 -19.8)"/><path class="cls-2" d="M136.8,182c14.88-3.85,30.69-1.84,45.89.1,1.9.24,3.72-1.85,3.64-3.64-.09-2.18-1.6-3.38-3.64-3.64-15.86-2-32.11-3.9-47.82.16a3.64,3.64,0,1,0,1.93,7Z" transform="translate(-74.36 -19.8)"/><path class="cls-2" d="M104.73,208.38a7.71,7.71,0,0,0-7.3,11.19,8,8,0,0,0,5.88,4.48,8.93,8.93,0,0,0,7.71-2.36,9.22,9.22,0,0,0,2.41-8.5,2.44,2.44,0,0,0-3-1.69,2.48,2.48,0,0,0-1.69,3,2.39,2.39,0,0,0,.07.35s0-.49,0-.21,0,.4,0,.61a2.78,2.78,0,0,0,0,.7s.09-.48,0-.21-.06.28-.09.43-.1.39-.17.59a1.25,1.25,0,0,0-.09.25c0-.07.21-.43,0-.1a5.61,5.61,0,0,1-.29.54c0,.1-.12.2-.18.3l-.07.11c.19-.28-.19.22-.26.29l-.51.48s.38-.26.14-.11l-.29.19c-.2.13-.42.23-.62.34s.15-.08.17-.06a2.8,2.8,0,0,0-.33.12l-.59.17-.35.07c-.28.06.22,0,.21,0a1.86,1.86,0,0,1-.71,0,3.33,3.33,0,0,0-.7,0s.47.09.21,0l-.34-.07c-.2-.05-.39-.12-.59-.18s-.3-.16,0,0l-.19-.11-.5-.31c-.27-.18.33.3.1.06l-.19-.16-.41-.43c-.23-.22.25.37.07.1s-.17-.23-.24-.35-.2-.34-.29-.52-.06-.18-.11-.22c.23.23.14.35.06.11s-.12-.38-.16-.57l-.06-.24c-.12-.53,0,.37,0,.06s0-.39,0-.58,0-.74,0-.35.07-.22.1-.33a2.33,2.33,0,0,1,.1-.32c-.1,0-.22.46,0,0,.1-.2.23-.38.34-.57s-.1.14-.12.15.21-.24.27-.31.48-.35.56-.52c0,0-.38.26-.15.13l.35-.23.3-.16c.31-.17-.08,0-.13,0,.09-.11.49-.16.64-.2,0,0,.32-.08.33-.07s-.61.05-.07,0a6.26,6.26,0,0,1,.75,0,2.43,2.43,0,0,0,2.43-2.43,2.5,2.5,0,0,0-2.43-2.43Z" transform="translate(-74.36 -19.8)"/><path class="cls-2" d="M97.32,239.13a7.53,7.53,0,0,0,.37,4.07,8,8,0,0,0,2.24,3.19,7.71,7.71,0,0,0,7.59,1.35,8.18,8.18,0,0,0,5.28-5.81,9,9,0,0,0-2-7.92,9.19,9.19,0,0,0-8.39-2.75,2.43,2.43,0,0,0-1.69,3,2.49,2.49,0,0,0,3,1.7c-.07,0-.56,0-.12,0l.26,0h.61a1.5,1.5,0,0,0,.35,0s-.47-.09-.21,0l.69.15a4.43,4.43,0,0,0,.58.2c-.07,0-.42-.21-.1,0l.24.12a4.07,4.07,0,0,1,.53.31,1.2,1.2,0,0,1,.29.19c-.07-.11-.32-.27-.08,0s.34.31.51.48a1.63,1.63,0,0,0,.17.2c.2.2-.13-.14-.11-.15a5,5,0,0,1,.4.61l.13.24.08.16c.07.16,0,.11-.07-.17.15,0,.24,1.19.34,1.22s0-.48,0-.19c0,.12,0,.24,0,.36a4.33,4.33,0,0,1,0,.72,1.27,1.27,0,0,0,0,.27c-.09-.09.09-.47,0-.11,0,.2-.09.41-.15.61l-.09.26c-.15.48,0-.1,0-.08s-.32.59-.35.63a2,2,0,0,0-.19.28s.3-.35.12-.16-.26.29-.4.43l-.25.22c-.07.06-.27.15,0,0s0,0-.1,0l-.29.18a3.16,3.16,0,0,0-.52.26c.24-.22.35-.13.11-.06l-.24.08-.57.15c-.43.1.08,0,.14,0a1.93,1.93,0,0,0-.33,0c-.22,0-.45,0-.67,0-.46,0,.43.11,0,0-.22-.05-.43-.11-.64-.18s-.25-.16,0,0-.12-.07-.17-.1l-.21-.13c-.33-.21-.09-.15,0,0-.09-.17-.36-.32-.5-.46l-.22-.24c-.24-.27,0,.06.06.09-.12,0-.29-.44-.36-.57a2.79,2.79,0,0,1-.15-.3c0,.05.17.47,0,.12a6.05,6.05,0,0,1-.2-.73,1.69,1.69,0,0,0-.05-.24c.09.21.05.45,0,.06,0-.2.08-1,0-.27a2.64,2.64,0,0,0-.25-1.87,2.51,2.51,0,0,0-1.45-1.12c-1.15-.26-2.78.36-3,1.7Z" transform="translate(-74.36 -19.8)"/><path class="cls-2" d="M112.93,263.69a7.71,7.71,0,0,0-9.51-9.34,8.24,8.24,0,0,0-5.75,5.39,8.76,8.76,0,0,0,1.06,7.59,9.12,9.12,0,0,0,7.87,3.93,2.43,2.43,0,1,0,0-4.85c-.21,0-.41,0-.61,0l-.35,0c-.27,0,.19,0,.21,0-.34-.21-1.06-.05-1.36-.36,0,0,.52.25.1,0l-.24-.11-.53-.31a2.17,2.17,0,0,1-.29-.2s.35.3.15.11a7.41,7.41,0,0,1-.58-.54c-.07-.07-.45-.56-.26-.28s-.15-.24-.21-.34-.19-.36-.28-.55.13.42,0,.09c0-.14-.09-.28-.13-.42s-.09-.4-.14-.6,0,.22,0,.21a2.26,2.26,0,0,1,0-.35c0-.21,0-.42,0-.62s0-.18,0-.27c0-.56-.08.35,0,0s.08-.4.14-.6.07-.23.1-.34c.08-.29.15,0,0,.09.1-.07.22-.45.28-.55l.13-.22s.36-.45.12-.18.19-.2.26-.27.52-.45.26-.25.23-.14.31-.19a2.69,2.69,0,0,1,.29-.16c.07,0,.52-.25.17-.1s.23-.07.34-.1A3.77,3.77,0,0,1,105,259c.6-.12-.34,0,.1,0,.22,0,.45,0,.67,0a2,2,0,0,1,.33,0s-.63-.13-.15,0l.57.16a2.18,2.18,0,0,0,.23.09c-.34,0-.34-.18-.12,0a2.33,2.33,0,0,0,.56.34c-.19,0-.33-.3-.1-.08l.3.28.17.18c.05.05.29.43.12.13l.22.37.16.29a1,1,0,0,0,.07.15c.07.17,0,.1-.09-.2a2.52,2.52,0,0,0,.19.63,1.5,1.5,0,0,0,.07.32c-.06-.09,0-.51,0-.16s0,.49,0,.73,0-.22,0-.24a3.52,3.52,0,0,0-.11.49,2.43,2.43,0,0,0,4.68,1.29Z" transform="translate(-74.36 -19.8)"/><path class="cls-2" d="M212.34,223.71h-68a1.94,1.94,0,0,1,0-3.88h68a3.55,3.55,0,0,0,0-7.1H151.46a1.95,1.95,0,0,1,0-3.89h60.88a7.44,7.44,0,1,1,0,14.87Z" transform="translate(-74.36 -19.8)"/><path class="cls-2" d="M172.33,270.11H128.51a7.43,7.43,0,1,1,0-14.86h56.37a1.94,1.94,0,1,1,0,3.88H128.51a3.55,3.55,0,1,0,0,7.1h43.82a1.94,1.94,0,1,1,0,3.88Zm40-23H164.11a1.94,1.94,0,0,1,0-3.88h48.23a3.55,3.55,0,0,0,0-7.1H191.66a1.95,1.95,0,0,1,0-3.89h20.68a7.44,7.44,0,1,1,0,14.87Zm-57.2,0H128.51a7.44,7.44,0,0,1,0-14.87h49.74a1.95,1.95,0,0,1,0,3.89H128.51a3.55,3.55,0,0,0,0,7.1h26.63a1.94,1.94,0,1,1,0,3.88Z" transform="translate(-74.36 -19.8)"/><path class="cls-2" d="M212.34,270.11H182.62a1.94,1.94,0,1,1,0-3.88h29.72a3.55,3.55,0,0,0,0-7.1H192a1.94,1.94,0,1,1,0-3.88h20.3a7.43,7.43,0,1,1,0,14.86Zm-76.56-46.4h-7.27a7.44,7.44,0,0,1,0-14.87h15.11a1.95,1.95,0,0,1,0,3.89H128.51a3.55,3.55,0,1,0,0,7.1h7.27a1.94,1.94,0,0,1,0,3.88Z" transform="translate(-74.36 -19.8)"/><path class="cls-2" d="M209.76,209.12c8.47-5.9,9.76-16.77,10.3-26.29.29-5.2.51-10.59-1.27-15.58-1.9-5.29-5.47-9.9-10.77-12.07-5.67-2.32-11.76-.5-16.12,3.55a24.71,24.71,0,0,0-6,9.31,68.43,68.43,0,0,0-2.49,8.46c-.74,3-1.47,5.93-2,8.95-.87,5.27-1.09,10.66,1.13,15.65a19,19,0,0,0,13,10.77,18.46,18.46,0,0,0,14.18-2.75c2.6-1.71.17-5.91-2.45-4.19a17.69,17.69,0,0,1-6.41,2.48c-.4.08.36,0-.33,0l-.36,0a12.83,12.83,0,0,1-2.32-.09,13.73,13.73,0,0,1-9.95-6.52c-2.26-3.58-2.56-7.67-2.14-11.81a91.59,91.59,0,0,1,3.47-15.84,26.32,26.32,0,0,1,3.88-8.58c2.44-3.39,6.48-6.24,10.86-5.59s7.64,4.11,9.42,7.87c1.95,4.13,2.1,8.62,1.91,13.1a72.73,72.73,0,0,1-1.43,13.52c-1,4.33-2.83,8.77-6.6,11.4a2.49,2.49,0,0,0-.87,3.32A2.44,2.44,0,0,0,209.76,209.12Z" transform="translate(-74.36 -19.8)"/><path class="cls-2" d="M205.44,209.1a30.75,30.75,0,0,0,4-10.76,2.65,2.65,0,0,0-.25-1.87,2.43,2.43,0,0,0-4.43.58,28.91,28.91,0,0,1-1.35,5.19c-.16.42-.31.85-.5,1.27l0,.09c-.1.22-.2.44-.31.66-.39.82-.82,1.61-1.29,2.39a2.43,2.43,0,0,0,4.19,2.45Z" transform="translate(-74.36 -19.8)"/><path class="cls-2" d="M193,208.94a15.73,15.73,0,0,0,2.87-4.09,17,17,0,0,0,1.52-5.31,2.39,2.39,0,0,0-.71-1.72,2.43,2.43,0,0,0-3.43,0,2.85,2.85,0,0,0-.71,1.72l0,.12.09-.64a13.65,13.65,0,0,1-.92,3.38l.25-.58a13.8,13.8,0,0,1-1.77,3l.38-.49q-.47.58-1,1.14a2.43,2.43,0,0,0,3.44,3.43Z" transform="translate(-74.36 -19.8)"/></g></svg>